<svg width="13" height="8" viewBox="0 0 13 8" fill="none" xmlns="http://www.w3.org/2000/svg">
<path id="Vector" opacity="0.6" d="M10.9137 0.968484L6.72836 4.78606L2.54305 0.968485C2.44319 0.877392 2.32463 0.805134 2.19415 0.755835C2.06366 0.706536 1.92381 0.681162 1.78258 0.681162C1.64135 0.681162 1.5015 0.706536 1.37101 0.755835C1.24053 0.805134 1.12197 0.877392 1.0221 0.968485C0.922237 1.05958 0.843019 1.16772 0.788972 1.28674C0.734924 1.40576 0.707107 1.53332 0.707107 1.66214C0.707107 1.79097 0.734924 1.91853 0.788972 2.03755C0.84302 2.15657 0.922237 2.26471 1.0221 2.3558L5.97328 6.87196C6.07308 6.96317 6.19161 7.03554 6.3221 7.08491C6.4526 7.13428 6.59248 7.1597 6.73376 7.1597C6.87503 7.1597 7.01492 7.13428 7.14541 7.08491C7.2759 7.03554 7.39444 6.96317 7.49423 6.87196L12.4454 2.3558C12.5454 2.26477 12.6247 2.15665 12.6789 2.03763C12.733 1.9186 12.7609 1.791 12.7609 1.66214C12.7609 1.53328 12.733 1.40568 12.6789 1.28666C12.6247 1.16763 12.5454 1.05951 12.4454 0.968484C12.0247 0.594597 11.3344 0.584758 10.9137 0.968484Z" fill="white"/>
</svg>
