<svg width="48" height="48" viewBox="0 0 48 48" fill="none" xmlns="http://www.w3.org/2000/svg">
<g id="entypo:light-down">
<path id="Vector" d="M23.9522 16.4244C22.9468 16.4215 21.9507 16.6175 21.0213 17.001C20.0919 17.3845 19.2475 17.948 18.5367 18.6591C17.8259 19.3701 17.2627 20.2147 16.8794 21.1442C16.4962 22.0737 16.3005 23.0698 16.3037 24.0752C16.3009 25.0803 16.4968 26.076 16.8802 27.0052C17.2636 27.9343 17.8269 28.7784 18.5377 29.489C19.2485 30.1996 20.0928 30.7626 21.022 31.1457C21.9513 31.5288 22.9471 31.7244 23.9522 31.7213C24.9571 31.7241 25.9526 31.5283 26.8815 31.145C27.8105 30.7618 28.6545 30.1987 29.3651 29.4881C30.0756 28.7776 30.6387 27.9335 31.022 27.0046C31.4052 26.0757 31.6011 25.0801 31.5982 24.0752C31.6017 23.0699 31.4063 22.0739 31.0234 21.1444C30.6404 20.2149 30.0774 19.3703 29.3668 18.6592C28.6561 17.9481 27.8119 17.3846 26.8826 17.0011C25.9534 16.6175 24.9575 16.4215 23.9522 16.4244ZM23.9522 28.9726C22.6527 28.9726 21.4064 28.4564 20.4875 27.5375C19.5686 26.6186 19.0524 25.3723 19.0524 24.0728C19.0524 22.7733 19.5686 21.527 20.4875 20.6082C21.4064 19.6893 22.6527 19.173 23.9522 19.173C25.2517 19.173 26.4979 19.6893 27.4168 20.6082C28.3357 21.527 28.852 22.7733 28.852 24.0728C28.852 25.3723 28.3357 26.6186 27.4168 27.5375C26.4979 28.4564 25.2517 28.9726 23.9522 28.9726ZM35.9029 12.1293C35.1572 11.3836 33.7924 11.5365 32.8602 12.4687C31.9281 13.4032 31.7775 14.7608 32.5232 15.5089C33.2689 16.2571 34.6313 16.1065 35.5659 15.1719C36.498 14.2398 36.6486 12.875 35.9029 12.1293ZM12.3408 32.9928C11.4063 33.925 11.2557 35.285 12.0014 36.0307C12.7472 36.7764 14.1096 36.6282 15.0441 35.6937C15.9786 34.7592 16.1292 33.3968 15.3835 32.6511C14.6378 31.9053 13.273 32.0583 12.3408 32.9928ZM12.0014 12.1293C11.2557 12.875 11.4063 14.2398 12.3385 15.1719C13.273 16.1065 14.6354 16.2547 15.3811 15.5089C16.1268 14.7632 15.9763 13.3984 15.0417 12.4663C14.1119 11.5365 12.7472 11.3836 12.0014 12.1293ZM32.8602 35.6889C33.7924 36.6235 35.1548 36.7764 35.9029 36.0307C36.651 35.285 36.498 33.9202 35.5635 32.9857C34.6289 32.0511 33.2689 31.9029 32.5208 32.6487C31.7727 33.3944 31.9281 34.7568 32.8602 35.6889ZM23.9522 12.1245C25.0062 12.1245 25.8643 11.0561 25.8643 9.73436C25.8619 8.41261 25.0062 7.349 23.9522 7.349C22.8957 7.349 22.0377 8.41261 22.0377 9.73436C22.0377 11.0561 22.8933 12.1245 23.9522 12.1245ZM23.9522 40.811C25.0062 40.811 25.8643 39.7426 25.8643 38.4209C25.8643 37.0991 25.0086 36.0355 23.9546 36.0355C22.8981 36.0355 22.04 37.0991 22.04 38.4209C22.0377 39.7426 22.8933 40.811 23.9522 40.811ZM12.0014 24.08C12.0014 23.0259 10.9259 22.1679 9.60413 22.1679C8.28238 22.1679 7.22116 23.0259 7.22116 24.08C7.22116 25.1364 8.28238 25.9921 9.60413 25.9921C10.9259 25.9921 12.0014 25.1364 12.0014 24.08ZM40.6832 24.08C40.6832 23.0259 39.6124 22.1679 38.2906 22.1679C36.9689 22.1679 35.9029 23.0259 35.9029 24.08C35.9029 25.1364 36.9689 25.9921 38.2906 25.9921C39.6124 25.9921 40.6832 25.1364 40.6832 24.08Z" fill="#8E88C1"/>
</g>
</svg>
